# Blender 4.0.2
# www.blender.org
mtllib FancyWater.mtl
o Plane
v -0.025000 0.085001 0.000000
v -0.025000 -0.400001 -0.000000
v 0.025000 -0.400001 -0.000000
v 0.025000 0.085001 0.000000
v -0.250000 -0.500001 -0.000000
v 0.250000 -0.500001 -0.000000
v -0.325000 0.385001 0.000000
v 0.325000 0.385001 0.000000
v 0.325000 0.500000 0.000000
v 0.238397 0.450000 0.000000
v 0.238397 0.350000 0.000000
v 0.325000 0.300000 0.000000
v 0.411603 0.350000 0.000000
v 0.411603 0.450000 0.000000
v 0.258624 0.364903 0.000000
v 0.018915 0.105098 0.000000
v -0.018915 0.105098 0.000000
v -0.258624 0.364903 0.000000
vn -0.0000 -0.0000 1.0000
vt 0.000000 0.000000
vt 0.513222 0.525000
vt 0.486778 0.525000
vt 0.475000 0.525000
vt 0.475000 0.475000
vt 0.525000 0.475000
vt 0.525000 0.525000
vt 0.521965 0.525000
vt 0.478035 0.525000
s 0
f 10/1/1 11/1/1 12/1/1 13/1/1 14/1/1 9/1/1
f 16/2/1 17/3/1 1/4/1 2/5/1 5/5/1 6/6/1 3/6/1 4/7/1
f 17/3/1 16/2/1 15/8/1 18/9/1
f 15/8/1 16/2/1 4/7/1 8/7/1 7/4/1 1/4/1 17/3/1 18/9/1
