# Blender 4.0.2
# www.blender.org
mtllib NormalWater.mtl
o Plane
v -0.212500 -0.500000 -0.000000
v 0.212500 -0.500000 -0.000000
v -0.149610 0.498039 0.000000
v 0.149610 0.498039 0.000000
v -0.206250 0.277143 0.000000
v -0.212500 0.134286 0.000000
v -0.250000 -0.008571 -0.000000
v -0.212500 -0.151429 -0.000000
v -0.250000 -0.294286 -0.000000
v -0.212500 -0.437143 -0.000000
v 0.212500 -0.437143 -0.000000
v 0.250000 -0.294286 -0.000000
v 0.212500 -0.151429 -0.000000
v 0.250000 -0.008571 -0.000000
v 0.212500 0.134286 0.000000
v 0.206250 0.277143 0.000000
v 0.144307 0.399884 0.000000
v -0.144307 0.399884 0.000000
v 0.041226 -0.065751 -0.001000
v 0.041226 -0.029387 -0.001000
v 0.059408 -0.029387 -0.001000
v 0.059408 -0.065751 -0.001000
v 0.023044 -0.029387 -0.001000
v 0.023044 0.025159 -0.001000
v 0.041226 0.025159 -0.001000
v 0.041226 -0.029387 -0.001000
v 0.059408 -0.029387 -0.001000
v 0.059408 0.025159 -0.001000
v 0.077590 0.025159 -0.001000
v 0.077590 -0.029387 -0.001000
v -0.013319 -0.065751 -0.001000
v -0.013319 0.061522 -0.001000
v 0.023044 0.061522 -0.001000
v 0.023044 0.025159 -0.001000
v 0.004863 0.025159 -0.001000
v 0.004863 -0.065751 -0.001000
v 0.095772 -0.065751 -0.001000
v 0.095772 0.025159 -0.001000
v 0.077590 0.025159 -0.001000
v 0.077590 0.061522 -0.001000
v 0.113953 0.061522 -0.001000
v 0.113953 -0.065751 -0.001000
v -0.122410 -0.065751 -0.001000
v -0.122410 0.061522 -0.001000
v -0.104228 0.061522 -0.001000
v -0.104228 0.006977 -0.001000
v -0.049683 0.006977 -0.001000
v -0.049683 0.061522 -0.001000
v -0.031501 0.061522 -0.001000
v -0.031501 -0.065751 -0.001000
v -0.049683 -0.065751 -0.001000
v -0.049683 -0.011205 -0.001000
v -0.104228 -0.011205 -0.001000
v -0.104228 -0.065751 -0.001000
vn -0.0000 -0.0000 1.0000
vt 0.000000 0.928571
vt 1.000000 0.928571
vt 1.000000 1.000000
vt 0.000000 1.000000
vt 0.000000 0.000000
vt 1.000000 0.000000
vt 1.000000 0.142857
vt 0.000000 0.142857
vt 1.000000 0.285714
vt 0.000000 0.285714
vt 1.000000 0.428571
vt 0.000000 0.428571
vt 0.000000 0.714286
vt 1.000000 0.714286
vt 1.000000 0.857143
vt 0.000000 0.857143
vt 0.347826 0.000000
vt 0.478261 0.000000
vt 0.434783 0.000000
vt 0.391304 0.000000
vt 0.727273 0.000000
vt 0.636364 0.000000
vt 0.545455 0.000000
vt 0.454545 0.000000
vt 0.363636 0.000000
vt 0.272727 0.000000
vt 0.181818 0.000000
vt 0.090909 0.000000
vt 0.909091 0.000000
vt 0.818182 0.000000
vt 0.173913 0.000000
vt 0.304348 0.000000
vt 0.260870 0.000000
vt 0.217391 0.000000
vt 0.130435 0.000000
vt 0.086957 0.000000
vt 0.043478 0.000000
vt 0.956522 0.000000
vt 0.913043 0.000000
vt 0.869565 0.000000
vt 0.826087 0.000000
vt 0.782609 0.000000
vt 0.695652 0.000000
vt 0.652174 0.000000
vt 0.608696 0.000000
vt 0.565217 0.000000
vt 0.521739 0.000000
vt 0.739130 0.000000
vt 1.000000 0.571429
vt 0.000000 0.571429
s 0
f 18/1/1 17/2/1 4/3/1 3/4/1
f 1/5/1 2/6/1 11/7/1 10/8/1
f 10/8/1 11/7/1 12/9/1 9/10/1
f 9/10/1 12/9/1 13/11/1 8/12/1
f 6/13/1 15/14/1 16/15/1 5/16/1
f 5/16/1 16/15/1 17/2/1 18/1/1
f 27/17/1 30/18/1 29/19/1 28/20/1
f 51/21/1 50/22/1 49/23/1 48/24/1 47/25/1 46/26/1 45/27/1 44/28/1 43/5/1 54/6/1 53/29/1 52/30/1
f 23/31/1 26/32/1 25/33/1 24/34/1
f 19/5/1 22/35/1 21/36/1 20/37/1
f 42/6/1 41/38/1 40/39/1 39/40/1 38/41/1 37/42/1
f 35/43/1 34/44/1 33/45/1 32/46/1 31/47/1 36/48/1
f 8/12/1 13/11/1 14/49/1 15/14/1 6/13/1 7/50/1
