# Blender 4.0.2
# www.blender.org
mtllib TapWater.mtl
o Plane
v 0.220000 0.100000 0.000000
v 0.500000 0.100000 0.000000
v 0.220000 0.300000 0.000000
v 0.500000 0.300000 0.000000
v 0.000000 0.100000 0.000000
v 0.082500 0.225000 0.000000
v 0.000000 0.100000 0.000000
v 0.239667 0.019926 0.000000
v -0.019667 0.019926 0.000000
v 0.239667 -0.036257 -0.000000
v -0.019667 -0.036257 -0.000000
v 0.360000 0.100000 0.000000
v 0.500000 0.200000 0.000000
v 0.360000 0.300000 0.000000
v 0.500000 0.335000 0.000000
v 0.360000 0.335000 0.000000
v 0.500000 0.500000 0.000000
v 0.360000 0.500000 0.000000
v -0.140000 0.449483 0.000000
v -0.140000 0.500000 0.000000
v 0.100000 -0.056988 -0.000000
v -0.006066 -0.233934 -0.000000
v -0.050000 -0.340000 -0.000000
v -0.006066 -0.446066 -0.000000
v 0.100000 -0.490000 -0.000000
v 0.206066 -0.446066 -0.000000
v 0.250000 -0.340000 -0.000000
v 0.206066 -0.233934 -0.000000
vn -0.0000 -0.0000 1.0000
vn -0.0000 -0.0000 -1.0000
vt 0.500000 1.000000
vt 1.000000 1.000000
vt 0.000000 0.000000
vt 0.000000 1.000000
vt 1.000000 0.500000
vt 1.000000 0.000000
vt 0.500000 0.000000
s 0
f 16/1/1 15/2/1 17/2/1 18/1/1 20/1/1 19/1/1
f 22/3/1 23/3/1 24/3/1 25/3/1 26/3/1 27/3/1 28/3/1 21/3/1
f 10/3/2 11/3/2 9/3/2 7/3/2 6/3/2 3/4/2 14/1/2 16/1/2 15/2/2 4/2/2 13/5/2 2/6/2 12/7/2 1/3/2 8/3/2
l 6 5
l 7 5
