# Blender 4.0.2
# www.blender.org
mtllib siedemfixed.mtl
o Plane.001
v -0.087461 -0.263224 -0.000000
v 0.047539 -0.263224 -0.000000
v 0.132539 0.116776 0.000000
v 0.262539 0.116776 0.000000
v 0.132539 0.236776 0.000000
v 0.242539 0.216775 0.000000
v -0.237461 0.116776 0.000000
v -0.237461 0.236776 0.000000
v -0.129283 0.141776 0.000000
v 0.001628 0.141776 0.000000
vn -0.0000 -0.0000 1.0000
vt 0.000000 1.000000
vt 0.000000 0.000000
vt 1.000000 0.000000
vt 1.000000 1.000000
s 0
f 5/1/1 8/1/1 7/1/1 9/1/1 10/1/1 3/1/1 1/2/1 2/3/1 4/4/1 6/4/1
