# Blender 4.0.2
# www.blender.org
mtllib orange.mtl
o Cube
v 0.000000 0.250000 0.015000
v -0.125000 0.216506 0.015000
v -0.216506 0.125000 0.015000
v -0.250000 -0.000000 0.015000
v -0.216506 -0.125000 0.015000
v -0.125000 -0.216506 0.015000
v 0.000000 -0.250000 0.015000
v 0.125000 -0.216506 0.015000
v 0.216506 -0.125000 0.015000
v 0.250000 -0.000000 0.015000
v 0.216506 0.125000 0.015000
v 0.125000 0.216506 0.015000
v 0.072600 0.224425 0.015100
v -0.003864 0.227763 0.015100
v -0.060293 0.176056 0.015100
v -0.063631 0.099592 0.015100
v -0.011924 0.043163 0.015100
v 0.114378 0.016585 0.015100
v 0.212148 0.049015 0.015100
v 0.174146 0.144756 0.015100
vn -0.0000 -0.0000 -1.0000
vt 0.000000 0.000000
s 0
f 2/1/1 1/1/1 12/1/1 11/1/1 10/1/1 9/1/1 8/1/1 7/1/1 6/1/1 5/1/1 4/1/1 3/1/1
f 14/1/1 13/1/1 20/1/1 19/1/1 18/1/1 17/1/1 16/1/1 15/1/1
l 15 19
